<svg width="79" height="70" viewBox="0 0 79 70" fill="none" xmlns="http://www.w3.org/2000/svg">
<path d="M39.5 65.581C59.1061 65.581 75 51.8559 75 34.925C75 17.9942 59.1061 4.26904 39.5 4.26904C19.8939 4.26904 4 17.9942 4 34.925C4 51.8559 19.8939 65.581 39.5 65.581Z" stroke="white" stroke-width="7" stroke-linecap="round" stroke-linejoin="round"/>
<path d="M39.1517 39.4351C39.1682 37.4062 38.5442 35.4566 37.4169 34.015C36.2896 32.5735 34.7515 31.7581 33.1408 31.7484C31.5302 31.7386 29.9789 32.5352 28.8283 33.963C27.6778 35.3907 27.0221 37.3326 27.0056 39.3615" stroke="white" stroke-width="4" stroke-linecap="round" stroke-linejoin="round"/>
<path d="M18 39.6746L18 30.1755" stroke="white" stroke-width="6" stroke-linecap="round" stroke-linejoin="round"/>
<path d="M62 39.6746L62 30.1755" stroke="white" stroke-width="6" stroke-linecap="round" stroke-linejoin="round"/>
<path d="M44 29.312L48.4826 39.6746L54 29.312" stroke="white" stroke-width="4" stroke-linecap="round" stroke-linejoin="round"/>
</svg>
